<?xml version="1.0" encoding="UTF-8" standalone="no"?>
<svg
   class="w-auto max-w-[100%] h-100 text-gray-800 dark:text-white"
   aria-hidden="true"
   width="563"
   height="395"
   viewBox="0 0 309.54009 395"
   fill="none"
   version="1.1"
   id="svg68"
   sodipodi:docname="path1.svg"
   inkscape:version="1.4.2 (f4327f4, 2025-05-13)"
   inkscape:export-filename="women.svg"
   inkscape:export-xdpi="96"
   inkscape:export-ydpi="96"
   xmlns:inkscape="http://www.inkscape.org/namespaces/inkscape"
   xmlns:sodipodi="http://sodipodi.sourceforge.net/DTD/sodipodi-0.dtd"
   xmlns="http://www.w3.org/2000/svg"
   xmlns:svg="http://www.w3.org/2000/svg">
  <sodipodi:namedview
     id="namedview68"
     pagecolor="#ffffff"
     bordercolor="#000000"
     borderopacity="0.25"
     inkscape:showpageshadow="2"
     inkscape:pageopacity="0.0"
     inkscape:pagecheckerboard="0"
     inkscape:deskcolor="#d1d1d1"
     inkscape:zoom="0.86816406"
     inkscape:cx="317.91226"
     inkscape:cy="194.08774"
     inkscape:window-width="1920"
     inkscape:window-height="974"
     inkscape:window-x="-11"
     inkscape:window-y="-11"
     inkscape:window-maximized="1"
     inkscape:current-layer="svg68">
    <inkscape:page
       x="0"
       y="0"
       width="309.5401"
       height="395"
       id="page2"
       margin="0"
       bleed="0" />
  </sodipodi:namedview>
  <g
     id="g1">
    <path
       d="m 429.09329,216.28188 c 0,94.68668 -76.75818,171.44486 -171.44486,171.44486 -94.68668,0 -171.444848,-76.75818 -171.444848,-171.44486 0,-94.68668 76.758168,-171.444855 171.444848,-171.444855 94.68668,0 171.44486,76.758175 171.44486,171.444855 z"
       fill="#d6e2fb"
       id="path1"
       style="stroke-width:0.963173" />
    <path
       d="m 429.09329,216.28188 c 0,94.68668 -76.75818,171.44486 -171.44486,171.44486 -94.68668,0 -171.444848,-76.75818 -171.444848,-171.44486 0,-94.68668 76.758168,-171.444855 171.444848,-171.444855 94.68668,0 171.44486,76.758175 171.44486,171.444855 z"
       fill="url(#paint0_linear_243_1776)"
       id="path2"
       style="fill:url(#paint0_linear_243_1776);stroke-width:0.963173" />
    <path
       d="M -28.414046,21.720865 H 319.29152 V 251.91929 c 0,2.12765 -1.72504,3.8527 -3.85269,3.8527 H -24.561353 c -2.127746,0 -3.852693,-1.72505 -3.852693,-3.8527 z"
       fill="#c8d8fa"
       id="path3"
       style="stroke-width:0.963173" />
    <path
       d="M -28.414046,21.720865 H 319.29152 V 251.91929 c 0,2.12765 -1.72504,3.8527 -3.85269,3.8527 H -24.561353 c -2.127746,0 -3.852693,-1.72505 -3.852693,-3.8527 z"
       fill="url(#paint1_linear_243_1776)"
       id="path4"
       style="fill:url(#paint1_linear_243_1776);stroke-width:0.963173" />
    <path
       d="m -28.414046,11.125958 c 0,-2.1277845 1.724947,-3.8526931 3.852693,-3.8526931 H 315.43883 c 2.12765,0 3.85269,1.7249086 3.85269,3.8526931 V 21.720865 H -28.414046 Z"
       fill="#d6e2fb"
       id="path5"
       style="stroke-width:0.963173" />
    <path
       fill-rule="evenodd"
       clip-rule="evenodd"
       d="M -28.414046,21.239278 H 319.29152 v 0.963174 H -28.414046 Z"
       fill="#c8d8fa"
       id="path6"
       style="stroke-width:0.963173" />
    <path
       d="m -13.966446,14.015478 c 0,1.595834 -1.293542,2.88952 -2.88952,2.88952 -1.595882,0 -2.88952,-1.293686 -2.88952,-2.88952 0,-1.595833 1.293638,-2.88952 2.88952,-2.88952 1.595978,0 2.88952,1.293687 2.88952,2.88952 z"
       fill="#f9fafb"
       id="path7"
       style="stroke-width:0.963173" />
    <path
       d="m -3.3715388,14.015478 c 0,1.595834 -1.293542,2.88952 -2.8895202,2.88952 -1.5959783,0 -2.8895201,-1.293686 -2.8895201,-2.88952 0,-1.595833 1.2935418,-2.88952 2.8895201,-2.88952 1.5959782,0 2.8895202,1.293687 2.8895202,2.88952 z"
       fill="#f9fafb"
       id="path8"
       style="stroke-width:0.963173" />
    <path
       d="m 7.2233679,14.015478 c 0,1.595834 -1.2935417,2.88952 -2.88952,2.88952 -1.5959782,0 -2.88952,-1.293686 -2.88952,-2.88952 0,-1.595833 1.2935418,-2.88952 2.88952,-2.88952 1.5959783,0 2.88952,1.293687 2.88952,2.88952 z"
       fill="#f9fafb"
       id="path9"
       style="stroke-width:0.963173" />
    <path
       d="m 168.07331,53.274424 c 0,-3.064047 2.45513,-5.547879 5.48335,-5.547879 H 287.8025 c 3.02822,0 5.48334,2.483832 5.48334,5.547879 V 157.75947 c 0,3.06385 -2.45512,5.54788 -5.48334,5.54788 H 173.55666 c -3.02822,0 -5.48335,-2.48403 -5.48335,-5.54788 z"
       fill="#d6e2fb"
       id="path10"
       style="stroke-width:0.963173" />
    <path
       d="m 168.07331,53.274424 c 0,-3.064047 2.45513,-5.547879 5.48335,-5.547879 H 287.8025 c 3.02822,0 5.48334,2.483832 5.48334,5.547879 V 157.75947 c 0,3.06385 -2.45512,5.54788 -5.48334,5.54788 H 173.55666 c -3.02822,0 -5.48335,-2.48403 -5.48335,-5.54788 z"
       fill="url(#paint2_linear_243_1776)"
       id="path11"
       style="fill:url(#paint2_linear_243_1776);stroke-width:0.963173" />
    <path
       fill-rule="evenodd"
       clip-rule="evenodd"
       d="m 255.72208,80.474439 h -50.08501 v 50.085011 h 50.08501 z M 203.71072,78.548092 V 132.4858 h 53.93771 V 78.548092 Z"
       fill="#c8d8fa"
       id="path12"
       style="stroke-width:0.963173" />
    <path
       d="m 27.450008,53.274424 c 0,-3.064047 2.455129,-5.547879 5.483346,-5.547879 H 147.17919 c 3.02822,0 5.48335,2.483832 5.48335,5.547879 V 157.75947 c 0,3.06385 -2.45513,5.54788 -5.48335,5.54788 H 32.933354 c -3.028217,0 -5.483346,-2.48403 -5.483346,-5.54788 z"
       fill="#d6e2fb"
       id="path13"
       style="stroke-width:0.963173" />
    <path
       d="m 27.450008,53.274424 c 0,-3.064047 2.455129,-5.547879 5.483346,-5.547879 H 147.17919 c 3.02822,0 5.48335,2.483832 5.48335,5.547879 V 157.75947 c 0,3.06385 -2.45513,5.54788 -5.48335,5.54788 H 32.933354 c -3.028217,0 -5.483346,-2.48403 -5.483346,-5.54788 z"
       fill="url(#paint3_linear_243_1776)"
       id="path14"
       style="fill:url(#paint3_linear_243_1776);stroke-width:0.963173" />
    <path
       fill-rule="evenodd"
       clip-rule="evenodd"
       d="m 72.348333,87.422001 c -9.779099,9.779677 -9.779099,25.635629 0,35.415689 9.780062,9.7791 25.635821,9.7791 35.415887,0 9.77909,-9.78006 9.77909,-25.636012 0,-35.415689 -9.780066,-9.779677 -25.635825,-9.779677 -35.415887,0 z m 36.777817,-1.36212 c -10.532307,-10.532011 -27.607443,-10.532011 -38.139744,0 -10.5323,10.532012 -10.5323,27.607439 0,38.139739 10.532301,10.5323 27.607437,10.5323 38.139744,0 10.53229,-10.5323 10.53229,-27.607727 0,-38.139739 z"
       fill="#c8d8fa"
       id="path15"
       style="stroke-width:0.963173" />
    <path
       d="m -113.17331,53.274424 c 0,-3.064047 2.45517,-5.547879 5.48376,-5.547879 H 6.5558888 c 3.0282163,0 5.4833452,2.483832 5.4833452,5.547879 V 157.75947 c 0,3.06385 -2.4551289,5.54788 -5.4833452,5.54788 H -107.68955 c -3.02859,0 -5.48376,-2.48403 -5.48376,-5.54788 z"
       fill="#d6e2fb"
       id="path16"
       style="stroke-width:0.963173" />
    <path
       d="m -113.17331,53.274424 c 0,-3.064047 2.45517,-5.547879 5.48376,-5.547879 H 6.5558888 c 3.0282163,0 5.4833452,2.483832 5.4833452,5.547879 V 157.75947 c 0,3.06385 -2.4551289,5.54788 -5.4833452,5.54788 H -107.68955 c -3.02859,0 -5.48376,-2.48403 -5.48376,-5.54788 z"
       fill="url(#paint4_linear_243_1776)"
       id="path17"
       style="fill:url(#paint4_linear_243_1776);stroke-width:0.963173" />
    <path
       fill-rule="evenodd"
       clip-rule="evenodd"
       d="m -15.151149,105.12975 -35.415884,-35.415498 -35.415494,35.415498 35.415494,35.41588 z m -35.415884,-38.139738 -38.139734,38.139738 38.139734,38.13974 38.139738,-38.13974 z"
       fill="#c8d8fa"
       id="path18"
       style="stroke-width:0.963173" />
    <path
       fill-rule="evenodd"
       clip-rule="evenodd"
       d="m 343.31307,364.82344 c -25.20432,14.56703 -54.46071,22.9033 -85.66464,22.9033 -10.05168,0 -19.90109,-0.86493 -29.47792,-2.52448 l 3.47224,-53.82117 h 105.46748 z"
       fill="#2563eb"
       id="path19"
       style="stroke-width:0.963173" />
    <path
       fill-rule="evenodd"
       clip-rule="evenodd"
       d="m 343.31307,364.82344 c -25.20432,14.56703 -54.46071,22.9033 -85.66464,22.9033 -10.05168,0 -19.90109,-0.86493 -29.47792,-2.52448 l 3.47224,-53.82117 h 105.46748 z"
       fill="url(#paint5_linear_243_1776)"
       id="path20"
       style="fill:url(#paint5_linear_243_1776);stroke-width:0.963173" />
    <path
       d="m 117.02512,132.4858 c 12.71389,5.77904 31.94557,25.20336 39.9717,34.19265 -2.24709,7.86624 -8.57225,20.03401 -15.89236,5.77904 -9.15015,-17.8187 -24.07934,-11.07649 -24.07934,-19.26346 0,-6.54958 6.09978,-8.50771 9.15015,-8.66856 l -10.11332,-10.11332 z"
       fill="#fdba8c"
       id="path21"
       style="stroke-width:0.963173" />
    <path
       d="m 117.02512,132.4858 c 12.71389,5.77904 31.94557,25.20336 39.9717,34.19265 -2.24709,7.86624 -8.57225,20.03401 -15.89236,5.77904 -9.15015,-17.8187 -24.07934,-11.07649 -24.07934,-19.26346 0,-6.54958 6.09978,-8.50771 9.15015,-8.66856 l -10.11332,-10.11332 z"
       fill="url(#paint6_linear_243_1776)"
       id="path22"
       style="fill:url(#paint6_linear_243_1776);stroke-width:0.963173" />
    <path
       d="m 158.2316,163.43256 c -11.26623,1.36096 -21.68199,7.3885 -26.5595,11.01292 -0.69926,0.52012 -0.92272,1.43706 -0.56538,2.23168 9.95632,22.14335 32.35684,69.75879 47.07991,93.54339 15.0255,24.27197 40.93487,25.20239 52.01136,22.63457 v 38.52694 c 0,1.06334 0.863,1.92634 1.92635,1.92634 h 104.15371 c 1.19145,0 2.09683,-1.07104 1.89938,-2.24612 L 313.99407,187.38764 h -37.08506 c -10.46103,0 -20.47225,4.25338 -27.73361,11.78347 l -40.64881,42.15424 -48.49289,-77.01823 c -0.38527,-0.61354 -1.08357,-0.96125 -1.8021,-0.87456 z"
       fill="#f9fafb"
       id="path23"
       style="stroke-width:0.963173" />
    <path
       d="m 158.2316,163.43256 c -11.26623,1.36096 -21.68199,7.3885 -26.5595,11.01292 -0.69926,0.52012 -0.92272,1.43706 -0.56538,2.23168 9.95632,22.14335 32.35684,69.75879 47.07991,93.54339 15.0255,24.27197 40.93487,25.20239 52.01136,22.63457 v 38.52694 c 0,1.06334 0.863,1.92634 1.92635,1.92634 h 104.15371 c 1.19145,0 2.09683,-1.07104 1.89938,-2.24612 L 313.99407,187.38764 h -37.08506 c -10.46103,0 -20.47225,4.25338 -27.73361,11.78347 l -40.64881,42.15424 -48.49289,-77.01823 c -0.38527,-0.61354 -1.08357,-0.96125 -1.8021,-0.87456 z"
       fill="url(#paint7_linear_243_1776)"
       fill-opacity="0.7"
       id="path24"
       style="fill:url(#paint7_linear_243_1776);stroke-width:0.963173" />
    <path
       opacity="0.2"
       fill-rule="evenodd"
       clip-rule="evenodd"
       d="m 219.97391,229.45328 16.06573,2.51773 c 1.65088,0.25813 2.21241,2.35207 0.91212,3.40193 l -13.62023,10.99173 c -1.7106,1.37927 -0.14737,4.08675 1.90323,3.29598 l 16.32868,-6.30011 c 1.55937,-0.60102 3.09178,0.93235 2.49076,2.49076 l -6.30011,16.32964 c -0.79077,2.04964 1.91671,3.61287 3.29694,1.90323 l 10.99077,-13.62023 c 1.04986,-1.30029 3.1438,-0.73972 3.40289,0.91116 l 2.70844,17.29185 c 0.34,2.17003 3.46646,2.17003 3.80646,0 l 2.70845,-17.29185 c 0.25909,-1.65088 2.35303,-2.21241 3.40289,-0.91116 l 10.99173,13.62023 c 1.37927,1.70964 4.08675,0.14641 3.29598,-1.90323 l -6.30011,-16.32964 c -0.60102,-1.55841 0.93235,-3.09178 2.49076,-2.49076 l 16.32964,6.30011 c 2.04964,0.79077 3.61287,-1.91671 1.90323,-3.29598 l -13.62119,-10.99173 c -1.30029,-1.04986 -0.73876,-3.1438 0.91212,-3.40193 l 17.29089,-2.70941 c 2.17099,-0.34 2.17099,-3.46646 0,-3.80646 l -17.29089,-2.70844 c -1.65088,-0.25909 -2.21241,-2.35303 -0.91212,-3.40193 l 13.62119,-10.99173 c 1.70964,-1.38023 0.14641,-4.08771 -1.90323,-3.29695 l -16.32964,6.30012 c -1.55841,0.60102 -3.09178,-0.93139 -2.49076,-2.49076 l 6.30011,-16.32868 c 0.79077,-2.0506 -1.91671,-3.61383 -3.29598,-1.90323 l -10.99173,13.62023 c -1.04986,1.30029 -3.1438,0.73876 -3.40289,-0.91212 l -2.06793,-13.19933 c -1.90612,0.76283 -3.75157,1.67785 -5.5161,2.73637 l -1.63932,10.46296 c -0.25909,1.65088 -2.35303,2.21241 -3.40289,0.91212 l -3.5387,-4.38629 -5.65672,5.86669 1.20782,3.13128 c 0.60102,1.55937 -0.93139,3.09178 -2.49076,2.49076 l -3.01666,-1.16351 -5.66154,5.87054 4.06652,3.28153 c 1.30029,1.0489 0.73876,3.14284 -0.91212,3.40193 l -11.30669,1.77128 z"
       fill="#2563eb"
       id="path25"
       style="stroke-width:0.963173" />
    <path
       opacity="0.2"
       fill-rule="evenodd"
       clip-rule="evenodd"
       d="m 331.86864,293.58714 -4.08193,5.05762 c -1.04889,1.30028 -3.14379,0.73972 -3.40192,-0.91116 l -2.70845,-17.29185 c -0.34096,-2.171 -3.46646,-2.171 -3.80646,0 l -2.70941,17.29185 c -0.25813,1.65088 -2.35206,2.21144 -3.40192,0.91116 l -10.99174,-13.62024 c -1.38023,-1.70963 -4.08674,-0.1464 -3.29598,1.90324 l 6.29916,16.32964 c 0.60198,1.55841 -0.93139,3.09178 -2.48981,2.4898 l -16.32964,-6.29915 c -2.04963,-0.79077 -3.61286,1.91575 -1.90323,3.29597 l 13.62024,10.99174 c 1.30028,1.04986 0.73971,3.1438 -0.91117,3.40193 l -17.29185,2.7094 c -2.17099,0.34 -2.17099,3.4655 0,3.80646 l 17.29185,2.70845 c 1.65088,0.25813 2.21145,2.35303 0.91117,3.40193 l -4.39111,3.54447 h 44.00065 c 1.19144,0 2.09683,-1.07104 1.89937,-2.24612 z"
       fill="#2563eb"
       id="path26"
       style="stroke-width:0.963173" />
    <path
       opacity="0.2"
       fill-rule="evenodd"
       clip-rule="evenodd"
       d="m 173.72617,186.05365 c -0.55575,-0.0327 -1.13461,0.17915 -1.57671,0.72719 l -10.99077,13.62024 c -1.04986,1.30028 -3.1438,0.73972 -3.40289,-0.91116 l -2.70845,-17.29185 c -0.34,-2.171 -3.46646,-2.171 -3.80646,0 l -2.70844,17.29185 c -0.25909,1.65088 -2.35303,2.21144 -3.40289,0.91116 l -7.31819,-9.06828 c 9.62114,20.72075 23.42245,49.27499 34.70987,69.26083 1.43706,1.08261 3.64947,-0.38719 2.92516,-2.26538 l -6.30011,-16.32868 c -0.60102,-1.55938 0.93138,-3.09275 2.49076,-2.49076 l 16.32964,6.29915 c 2.04964,0.79173 3.61287,-1.91575 1.90227,-3.29598 l -13.62023,-10.99173 c -1.30029,-1.0489 -0.73876,-3.1438 0.91212,-3.40193 l 17.29089,-2.70845 c 2.17099,-0.34096 2.17099,-3.46646 0,-3.80646 l -17.29089,-2.7094 c -1.65088,-0.25813 -2.21241,-2.35207 -0.91212,-3.40193 l 10.61802,-8.56839 -2.68244,-4.26012 -12.54726,4.83995 c -1.55938,0.60198 -3.09178,-0.93139 -2.49076,-2.4898 l 6.27603,-16.26704 z"
       fill="#2563eb"
       id="path27"
       style="stroke-width:0.963173" />
    <path
       d="m 294.24902,214.35553 c 2.69688,-10.017 0.16085,-23.11616 -0.96318,-26.96885 l -13.96601,-10.11332 -25.04251,-57.30881 c 1.44476,-4.65502 7.99434,-14.83287 22.63458,-18.29982 18.30029,-4.334276 26.96885,7.22332 33.22948,21.18934 6.26062,13.96601 10.5949,43.3428 32.26631,54.41929 21.6714,11.07649 34.67424,29.37679 33.71106,56.82723 -0.62028,17.67519 6.41377,35.28874 12.11191,45.75747 1.48232,2.72386 -0.43536,6.25389 -3.53581,6.25389 H 306.1837 c -1.41779,0 -2.73445,-0.79558 -3.38941,-2.05349 -19.34726,-37.2122 -11.8557,-57.40513 -8.54527,-69.70293 z"
       fill="#f9fafb"
       id="path28"
       style="stroke-width:0.963173" />
    <path
       d="m 294.24902,214.35553 c 2.69688,-10.017 0.16085,-23.11616 -0.96318,-26.96885 l -13.96601,-10.11332 -25.04251,-57.30881 c 1.44476,-4.65502 7.99434,-14.83287 22.63458,-18.29982 18.30029,-4.334276 26.96885,7.22332 33.22948,21.18934 6.26062,13.96601 10.5949,43.3428 32.26631,54.41929 21.6714,11.07649 34.67424,29.37679 33.71106,56.82723 -0.62028,17.67519 6.41377,35.28874 12.11191,45.75747 1.48232,2.72386 -0.43536,6.25389 -3.53581,6.25389 H 306.1837 c -1.41779,0 -2.73445,-0.79558 -3.38941,-2.05349 -19.34726,-37.2122 -11.8557,-57.40513 -8.54527,-69.70293 z"
       fill="url(#paint8_linear_243_1776)"
       id="path29"
       style="fill:url(#paint8_linear_243_1776);stroke-width:0.963173" />
    <path
       d="m 276.43031,187.38668 -12.03967,-23.11616 c 2.24709,-5.77904 8.8612,-15.50709 9.63174,-8.18697 0.96317,9.15014 5.77904,16.37394 12.03966,21.6714 3.53774,2.99354 5.94953,6.80385 7.2238,9.63173 z"
       fill="#fdba8c"
       id="path30"
       style="stroke-width:0.963173" />
    <path
       d="m 276.43031,187.38668 -12.03967,-23.11616 c 2.24709,-5.77904 8.8612,-15.50709 9.63174,-8.18697 0.96317,9.15014 5.77904,16.37394 12.03966,21.6714 3.53774,2.99354 5.94953,6.80385 7.2238,9.63173 z"
       fill="url(#paint9_linear_243_1776)"
       id="path31"
       style="fill:url(#paint9_linear_243_1776);stroke-width:0.963173" />
    <path
       d="m 271.13286,140.67277 -11.55808,-17.33712 c -4.65502,5.13661 -13.8697,17.91503 -13.48443,27.93203 0.48159,12.52125 5.29745,18.78188 17.33712,14.4476 8.21491,-2.95694 15.37899,-11.49547 19.10165,-18.02772 1.09802,-1.92634 0.88227,-4.28226 -0.32266,-6.14408 -1.89263,-2.92516 -5.73473,-3.87388 -8.77065,-2.16521 z"
       fill="#fdba8c"
       id="path32"
       style="stroke-width:0.963173" />
    <path
       d="m 271.13286,140.67277 -11.55808,-17.33712 c -4.65502,5.13661 -13.8697,17.91503 -13.48443,27.93203 0.48159,12.52125 5.29745,18.78188 17.33712,14.4476 8.21491,-2.95694 15.37899,-11.49547 19.10165,-18.02772 1.09802,-1.92634 0.88227,-4.28226 -0.32266,-6.14408 -1.89263,-2.92516 -5.73473,-3.87388 -8.77065,-2.16521 z"
       fill="url(#paint10_linear_243_1776)"
       id="path33"
       style="fill:url(#paint10_linear_243_1776);stroke-width:0.963173" />
    <path
       fill-rule="evenodd"
       clip-rule="evenodd"
       d="m 251.88865,157.29426 c 0.86975,-0.20612 1.76935,-0.57502 3.13706,-1.17508 0.35541,-0.15507 0.76958,0.006 0.92561,0.36119 0.15507,0.35541 -0.007,0.76958 -0.36119,0.92561 -1.35615,0.59428 -2.36652,1.01519 -3.37689,1.25502 -1.03059,0.24464 -2.03229,0.29569 -3.38362,0.20323 -0.3872,-0.026 -0.67904,-0.36119 -0.65304,-0.74742 0.026,-0.3872 0.36119,-0.68001 0.74839,-0.65304 1.26079,0.0857 2.11224,0.0327 2.96368,-0.16951 z"
       fill="#111928"
       id="path34"
       style="stroke-width:0.963173" />
    <path
       fill-rule="evenodd"
       clip-rule="evenodd"
       d="m 247.60542,333.30744 c 18.38409,-24.92596 24.10149,-61.90315 24.49061,-80.42497 -13.09916,21.57508 -33.39033,35.63741 -41.89804,39.97169 0,0 0,0 0,0 0,0 0,0 0,0 v 40.45328 z"
       fill="url(#paint11_linear_243_1776)"
       id="path35"
       style="fill:url(#paint11_linear_243_1776);stroke-width:0.963173" />
    <path
       fill-rule="evenodd"
       clip-rule="evenodd"
       d="m 277.71229,147.09618 c 0.40068,-0.95162 0.33615,-1.8936 0.0905,-2.86641 -0.0944,-0.37564 0.13292,-0.75802 0.50952,-0.85241 0.37564,-0.0953 0.75706,0.13292 0.85241,0.50856 0.28414,1.12306 0.40839,2.41082 -0.15892,3.75638 -0.56442,1.33784 -1.76454,2.61886 -3.89315,3.84306 -0.33615,0.19359 -0.76572,0.0771 -0.95932,-0.2591 -0.19264,-0.33614 -0.077,-0.76476 0.25909,-0.95835 1.97066,-1.13366 2.8953,-2.21338 3.29983,-3.17173 z"
       fill="#111928"
       id="path36"
       style="stroke-width:0.963173" />
    <path
       fill-rule="evenodd"
       clip-rule="evenodd"
       d="m 278.32295,138.74257 c -1.59598,-0.4132 -3.34607,-0.23116 -4.88811,0.63666 l -2.30198,1.29451 c 0,0 0,0 0,0 l -12.94216,-5.27241 1.38408,-5.80409 z"
       fill="#111928"
       id="path37"
       style="stroke-width:0.963173" />
    <path
       d="m 261.05806,121.01152 c -1.53144,-1.80884 -9.52963,-2.69978 -14.45915,-3.17462 -1.72505,-0.16567 -3.35955,0.83892 -3.97406,2.45898 -3.95382,10.41575 -5.42652,16.60222 -6.33479,23.20766 -0.20612,1.49966 0.49893,2.99932 1.72119,3.89218 l 0.13292,0.0973 c 3.31235,2.42335 8.86023,6.4812 12.20341,6.12964 5.35524,-0.56153 13.09145,-29.79962 10.71048,-32.61112 z"
       fill="#c8d8fa"
       id="path38"
       style="stroke-width:0.963173" />
    <path
       d="m 261.05806,121.01152 c -1.53144,-1.80884 -9.52963,-2.69978 -14.45915,-3.17462 -1.72505,-0.16567 -3.35955,0.83892 -3.97406,2.45898 -3.95382,10.41575 -5.42652,16.60222 -6.33479,23.20766 -0.20612,1.49966 0.49893,2.99932 1.72119,3.89218 l 0.13292,0.0973 c 3.31235,2.42335 8.86023,6.4812 12.20341,6.12964 5.35524,-0.56153 13.09145,-29.79962 10.71048,-32.61112 z"
       fill="url(#paint12_linear_243_1776)"
       id="path39"
       style="fill:url(#paint12_linear_243_1776);stroke-width:0.963173" />
    <path
       d="m 254.27732,120.92772 c -1.12595,-1.4072 -4.71666,-2.38578 -7.69768,-2.93575 -1.77031,-0.32748 -3.54544,0.49507 -4.42963,2.06408 -4.75904,8.45088 -6.10941,17.93717 -6.21536,23.46772 -0.0299,1.54011 0.80232,2.95694 2.19411,3.61479 2.12187,1.0017 5.03258,1.9928 7.48,1.72119 4.33428,-0.48159 10.59491,-25.5241 8.66856,-27.93203 z"
       fill="#2563eb"
       id="path40"
       style="stroke-width:0.963173" />
    <path
       d="m 254.27732,120.92772 c -1.12595,-1.4072 -4.71666,-2.38578 -7.69768,-2.93575 -1.77031,-0.32748 -3.54544,0.49507 -4.42963,2.06408 -4.75904,8.45088 -6.10941,17.93717 -6.21536,23.46772 -0.0299,1.54011 0.80232,2.95694 2.19411,3.61479 2.12187,1.0017 5.03258,1.9928 7.48,1.72119 4.33428,-0.48159 10.59491,-25.5241 8.66856,-27.93203 z"
       fill="url(#paint13_linear_243_1776)"
       id="path41"
       style="fill:url(#paint13_linear_243_1776);stroke-width:0.963173" />
  </g>
  <defs
     id="defs68">
    <linearGradient
       id="paint0_linear_243_1776"
       x1="80.5"
       y1="-214"
       x2="659"
       y2="364.5"
       gradientUnits="userSpaceOnUse"
       gradientTransform="matrix(0.96317334,0,0,0.96317334,-113.17331,7.2732649)">
      <stop
         stop-color="#2563eb"
         id="stop41" />
      <stop
         offset="1"
         stop-color="#2563eb"
         stop-opacity="0"
         id="stop42" />
    </linearGradient>
    <linearGradient
       id="paint1_linear_243_1776"
       x1="268.5"
       y1="441"
       x2="268.5"
       y2="2.5"
       gradientUnits="userSpaceOnUse"
       gradientTransform="matrix(0.96317334,0,0,0.96317334,-113.17331,7.2732649)">
      <stop
         stop-color="#c8d8fa"
         id="stop43" />
      <stop
         offset="1"
         stop-color="#c8d8fa"
         stop-opacity="0"
         id="stop44" />
    </linearGradient>
    <linearGradient
       id="paint2_linear_243_1776"
       x1="357"
       y1="197.571"
       x2="357"
       y2="75.857101"
       gradientUnits="userSpaceOnUse"
       gradientTransform="matrix(0.96317334,0,0,0.96317334,-113.17331,7.2732649)">
      <stop
         stop-color="#F9FAFB"
         id="stop45" />
      <stop
         offset="1"
         stop-color="#F9FAFB"
         stop-opacity="0"
         id="stop46" />
    </linearGradient>
    <linearGradient
       id="paint3_linear_243_1776"
       x1="211"
       y1="197.571"
       x2="211"
       y2="75.857101"
       gradientUnits="userSpaceOnUse"
       gradientTransform="matrix(0.96317334,0,0,0.96317334,-113.17331,7.2732649)">
      <stop
         stop-color="#F9FAFB"
         id="stop47" />
      <stop
         offset="1"
         stop-color="#F9FAFB"
         stop-opacity="0"
         id="stop48" />
    </linearGradient>
    <linearGradient
       id="paint4_linear_243_1776"
       x1="65"
       y1="197.571"
       x2="65"
       y2="75.857101"
       gradientUnits="userSpaceOnUse"
       gradientTransform="matrix(0.96317334,0,0,0.96317334,-113.17331,7.2732649)">
      <stop
         stop-color="#F9FAFB"
         id="stop49" />
      <stop
         offset="1"
         stop-color="#F9FAFB"
         stop-opacity="0"
         id="stop50" />
    </linearGradient>
    <linearGradient
       id="paint5_linear_243_1776"
       x1="416.5"
       y1="226.5"
       x2="416.5"
       y2="398.5"
       gradientUnits="userSpaceOnUse"
       gradientTransform="matrix(0.96317334,0,0,0.96317334,-113.17331,7.2732649)">
      <stop
         stop-color="#111928"
         id="stop51" />
      <stop
         offset="1"
         stop-color="#111928"
         stop-opacity="0"
         id="stop52" />
    </linearGradient>
    <linearGradient
       id="paint6_linear_243_1776"
       x1="304.5"
       y1="226"
       x2="253.5"
       y2="140"
       gradientUnits="userSpaceOnUse"
       gradientTransform="matrix(0.96317334,0,0,0.96317334,-113.17331,7.2732649)">
      <stop
         stop-color="#7F270F"
         id="stop53" />
      <stop
         offset="0.83338"
         stop-color="#7F270F"
         stop-opacity="0"
         id="stop54" />
    </linearGradient>
    <linearGradient
       id="paint7_linear_243_1776"
       x1="460"
       y1="376.50101"
       x2="308.5"
       y2="256.00101"
       gradientUnits="userSpaceOnUse"
       gradientTransform="matrix(0.96317334,0,0,0.96317334,-113.17331,7.2732649)">
      <stop
         stop-color="#c8d8fa"
         id="stop55" />
      <stop
         offset="1"
         stop-color="#c8d8fa"
         stop-opacity="0"
         id="stop56" />
    </linearGradient>
    <linearGradient
       id="paint8_linear_243_1776"
       x1="453"
       y1="48.5005"
       x2="453"
       y2="172.5"
       gradientUnits="userSpaceOnUse"
       gradientTransform="matrix(0.96317334,0,0,0.96317334,-113.17331,7.2732649)">
      <stop
         stop-color="#c8d8fa"
         id="stop57" />
      <stop
         offset="1"
         stop-color="#c8d8fa"
         stop-opacity="0"
         id="stop58" />
    </linearGradient>
    <linearGradient
       id="paint9_linear_243_1776"
       x1="408"
       y1="118"
       x2="408"
       y2="187"
       gradientUnits="userSpaceOnUse"
       gradientTransform="matrix(0.96317334,0,0,0.96317334,-113.17331,7.2732649)">
      <stop
         stop-color="#7F270F"
         id="stop59" />
      <stop
         offset="0.83338"
         stop-color="#7F270F"
         stop-opacity="0"
         id="stop60" />
    </linearGradient>
    <linearGradient
       id="paint10_linear_243_1776"
       x1="394.061"
       y1="76.942001"
       x2="394.061"
       y2="165.922"
       gradientUnits="userSpaceOnUse"
       gradientTransform="matrix(0.96317334,0,0,0.96317334,-113.17331,7.2732649)">
      <stop
         stop-color="#7F270F"
         id="stop61" />
      <stop
         offset="0.83338"
         stop-color="#7F270F"
         stop-opacity="0"
         id="stop62" />
    </linearGradient>
    <linearGradient
       id="paint11_linear_243_1776"
       x1="284"
       y1="263.5"
       x2="382"
       y2="302.5"
       gradientUnits="userSpaceOnUse"
       gradientTransform="matrix(0.96317334,0,0,0.96317334,-113.17331,7.2732649)">
      <stop
         stop-color="#2563eb"
         id="stop63" />
      <stop
         offset="1"
         stop-color="#2563eb"
         stop-opacity="0"
         id="stop64" />
    </linearGradient>
    <linearGradient
       id="paint12_linear_243_1776"
       x1="362"
       y1="152.00101"
       x2="389"
       y2="136.00101"
       gradientUnits="userSpaceOnUse"
       gradientTransform="matrix(0.96317334,0,0,0.96317334,-113.17331,7.2732649)">
      <stop
         stop-color="#d6e2fb"
         id="stop65" />
      <stop
         offset="1"
         stop-color="#d6e2fb"
         stop-opacity="0"
         id="stop66" />
    </linearGradient>
    <linearGradient
       id="paint13_linear_243_1776"
       x1="387.5"
       y1="88.500198"
       x2="372.16"
       y2="147.048"
       gradientUnits="userSpaceOnUse"
       gradientTransform="matrix(0.96317334,0,0,0.96317334,-113.17331,7.2732649)">
      <stop
         stop-color="#111928"
         id="stop67" />
      <stop
         offset="1"
         stop-color="#111928"
         stop-opacity="0"
         id="stop68" />
    </linearGradient>
  </defs>
</svg>
