<?xml version="1.0" encoding="UTF-8" standalone="no"?>
<svg
   class="w-auto max-w-[100%] h-100 text-gray-800 dark:text-white"
   aria-hidden="true"
   width="600"
   height="395"
   viewBox="0 0 329.88287 395"
   fill="none"
   version="1.1"
   id="svg68"
   sodipodi:docname="women.svg"
   inkscape:version="1.4.2 (f4327f4, 2025-05-13)"
   inkscape:export-filename="women.svg"
   inkscape:export-xdpi="96"
   inkscape:export-ydpi="96"
   xmlns:inkscape="http://www.inkscape.org/namespaces/inkscape"
   xmlns:sodipodi="http://sodipodi.sourceforge.net/DTD/sodipodi-0.dtd"
   xmlns="http://www.w3.org/2000/svg"
   xmlns:svg="http://www.w3.org/2000/svg">
  <sodipodi:namedview
     id="namedview68"
     pagecolor="#ffffff"
     bordercolor="#000000"
     borderopacity="0.25"
     inkscape:showpageshadow="2"
     inkscape:pageopacity="0.0"
     inkscape:pagecheckerboard="0"
     inkscape:deskcolor="#d1d1d1"
     inkscape:zoom="0.61388469"
     inkscape:cx="48.869112"
     inkscape:cy="140.90594"
     inkscape:window-width="1898"
     inkscape:window-height="952"
     inkscape:window-x="76"
     inkscape:window-y="0"
     inkscape:window-maximized="0"
     inkscape:current-layer="svg68" />
  <path
     d="m 445.71413,217 c 0,98.307 -79.693,178 -178,178 -98.307,0 -177.999999,-79.693 -177.999999,-178 0,-98.307 79.692999,-178 177.999999,-178 98.307,0 178,79.693 178,178 z"
     fill="#d6e2fb"
     id="path1"
     inkscape:export-filename="path1.svg"
     inkscape:export-xdpi="96"
     inkscape:export-ydpi="96" />
  <path
     d="m 445.71413,217 c 0,98.307 -79.693,178 -178,178 -98.307,0 -177.999999,-79.693 -177.999999,-178 0,-98.307 79.692999,-178 177.999999,-178 98.307,0 178,79.693 178,178 z"
     fill="url(#paint0_linear_243_1776)"
     id="path2"
     style="fill:url(#paint0_linear_243_1776)" />
  <path
     d="M -29.285869,15 H 331.71413 v 239 c 0,2.209 -1.791,4 -4,4 H -25.285869 c -2.2091,0 -4,-1.791 -4,-4 z"
     fill="#c8d8fa"
     id="path3" />
  <path
     d="M -29.285869,15 H 331.71413 v 239 c 0,2.209 -1.791,4 -4,4 H -25.285869 c -2.2091,0 -4,-1.791 -4,-4 z"
     fill="url(#paint1_linear_243_1776)"
     id="path4"
     style="fill:url(#paint1_linear_243_1776)" />
  <path
     d="m -29.285869,4 c 0,-2.20914 1.7909,-4 4,-4 H 327.71413 c 2.209,0 4,1.79086 4,4 V 15 H -29.285869 Z"
     fill="#d6e2fb"
     id="path5" />
  <path
     fill-rule="evenodd"
     clip-rule="evenodd"
     d="M -29.285869,14.5 H 331.71413 v 1 H -29.285869 Z"
     fill="#c8d8fa"
     id="path6" />
  <path
     d="m -14.285869,7 c 0,1.65685 -1.343,3 -3,3 -1.6569,0 -3,-1.34315 -3,-3 0,-1.65685 1.3431,-3 3,-3 1.657,0 3,1.34315 3,3 z"
     fill="#f9fafb"
     id="path7" />
  <path
     d="m -3.2858689,7 c 0,1.65685 -1.343,3 -2.9999999,3 -1.657,0 -3,-1.34315 -3,-3 0,-1.65685 1.343,-3 3,-3 1.6569999,0 2.9999999,1.34315 2.9999999,3 z"
     fill="#f9fafb"
     id="path8" />
  <path
     d="m 7.7141311,7 c 0,1.65685 -1.343,3 -3,3 -1.657,0 -3,-1.34315 -3,-3 0,-1.65685 1.343,-3 3,-3 1.657,0 3,1.34315 3,3 z"
     fill="#f9fafb"
     id="path9" />
  <path
     d="m 174.71413,47.76 c 0,-3.1812 2.549,-5.76 5.693,-5.76 h 118.614 c 3.144,0 5.693,2.5788 5.693,5.76 v 108.48 c 0,3.181 -2.549,5.76 -5.693,5.76 h -118.614 c -3.144,0 -5.693,-2.579 -5.693,-5.76 z"
     fill="#d6e2fb"
     id="path10" />
  <path
     d="m 174.71413,47.76 c 0,-3.1812 2.549,-5.76 5.693,-5.76 h 118.614 c 3.144,0 5.693,2.5788 5.693,5.76 v 108.48 c 0,3.181 -2.549,5.76 -5.693,5.76 h -118.614 c -3.144,0 -5.693,-2.579 -5.693,-5.76 z"
     fill="url(#paint2_linear_243_1776)"
     id="path11"
     style="fill:url(#paint2_linear_243_1776)" />
  <path
     fill-rule="evenodd"
     clip-rule="evenodd"
     d="m 265.71413,76 h -52 v 52 h 52 z m -54,-2 v 56 h 56 V 74 Z"
     fill="#c8d8fa"
     id="path12" />
  <path
     d="m 28.714131,47.76 c 0,-3.1812 2.549,-5.76 5.693,-5.76 H 153.02113 c 3.144,0 5.693,2.5788 5.693,5.76 v 108.48 c 0,3.181 -2.549,5.76 -5.693,5.76 H 34.407131 c -3.144,0 -5.693,-2.579 -5.693,-5.76 z"
     fill="#d6e2fb"
     id="path13" />
  <path
     d="m 28.714131,47.76 c 0,-3.1812 2.549,-5.76 5.693,-5.76 H 153.02113 c 3.144,0 5.693,2.5788 5.693,5.76 v 108.48 c 0,3.181 -2.549,5.76 -5.693,5.76 H 34.407131 c -3.144,0 -5.693,-2.579 -5.693,-5.76 z"
     fill="url(#paint3_linear_243_1776)"
     id="path14"
     style="fill:url(#paint3_linear_243_1776)" />
  <path
     fill-rule="evenodd"
     clip-rule="evenodd"
     d="m 75.329131,83.2132 c -10.153,10.1536 -10.153,26.6158 0,36.7698 10.154,10.153 26.615999,10.153 36.769999,0 10.153,-10.154 10.153,-26.6162 0,-36.7698 -10.154,-10.1536 -26.615999,-10.1536 -36.769999,0 z M 113.51313,81.799 c -10.935,-10.9347 -28.662999,-10.9347 -39.597999,0 -10.935,10.9347 -10.935,28.663 0,39.598 10.935,10.935 28.662999,10.935 39.597999,0 10.935,-10.935 10.935,-28.6633 0,-39.598 z"
     fill="#c8d8fa"
     id="path15" />
  <path
     d="m -117.28587,47.76 c 0,-3.1812 2.54904,-5.76 5.69343,-5.76 H 7.0211311 c 3.1439999,0 5.6929999,2.5788 5.6929999,5.76 v 108.48 c 0,3.181 -2.549,5.76 -5.6929999,5.76 H -111.59244 c -3.14439,0 -5.69343,-2.579 -5.69343,-5.76 z"
     fill="#d6e2fb"
     id="path16" />
  <path
     d="m -117.28587,47.76 c 0,-3.1812 2.54904,-5.76 5.69343,-5.76 H 7.0211311 c 3.1439999,0 5.6929999,2.5788 5.6929999,5.76 v 108.48 c 0,3.181 -2.549,5.76 -5.6929999,5.76 H -111.59244 c -3.14439,0 -5.69343,-2.579 -5.69343,-5.76 z"
     fill="url(#paint4_linear_243_1776)"
     id="path17"
     style="fill:url(#paint4_linear_243_1776)" />
  <path
     fill-rule="evenodd"
     clip-rule="evenodd"
     d="m -15.515869,101.598 -36.77,-36.7696 -36.7696,36.7696 36.7696,36.77 z m -36.77,-39.598 -39.598,39.598 39.598,39.598 39.598,-39.598 z"
     fill="#c8d8fa"
     id="path18" />
  <path
     fill-rule="evenodd"
     clip-rule="evenodd"
     d="m 356.65413,371.221 c -26.168,15.124 -56.543,23.779 -88.94,23.779 -10.436,0 -20.662,-0.898 -30.605,-2.621 l 3.605,-55.879 h 109.5 z"
     fill="#2563eb"
     id="path19" />
  <path
     fill-rule="evenodd"
     clip-rule="evenodd"
     d="m 356.65413,371.221 c -26.168,15.124 -56.543,23.779 -88.94,23.779 -10.436,0 -20.662,-0.898 -30.605,-2.621 l 3.605,-55.879 h 109.5 z"
     fill="url(#paint5_linear_243_1776)"
     id="path20"
     style="fill:url(#paint5_linear_243_1776)" />
  <path
     d="m 121.71413,130 c 13.2,6 33.167,26.167 41.5,35.5 -2.333,8.167 -8.9,20.8 -16.5,6 -9.5,-18.5 -25,-11.5 -25,-20 0,-6.8 6.333,-8.833 9.5,-9 l -10.5,-10.5 z"
     fill="#fdba8c"
     id="path21" />
  <path
     d="m 121.71413,130 c 13.2,6 33.167,26.167 41.5,35.5 -2.333,8.167 -8.9,20.8 -16.5,6 -9.5,-18.5 -25,-11.5 -25,-20 0,-6.8 6.333,-8.833 9.5,-9 l -10.5,-10.5 z"
     fill="url(#paint6_linear_243_1776)"
     id="path22"
     style="fill:url(#paint6_linear_243_1776)" />
  <path
     d="m 164.49613,162.13 c -11.697,1.413 -22.511,7.671 -27.575,11.434 -0.726,0.54 -0.958,1.492 -0.587,2.317 10.337,22.99 33.594,72.426 48.88,97.12 15.6,25.2 42.5,26.166 54,23.5 v 40 c 0,1.104 0.896,2 2,2 h 108.136 c 1.237,0 2.177,-1.112 1.972,-2.332 l -25.108,-149.168 h -38.503 c -10.861,0 -21.255,4.416 -28.794,12.234 l -42.203,43.766 -50.347,-79.963 c -0.4,-0.637 -1.125,-0.998 -1.871,-0.908 z"
     fill="#f9fafb"
     id="path23" />
  <path
     d="m 164.49613,162.13 c -11.697,1.413 -22.511,7.671 -27.575,11.434 -0.726,0.54 -0.958,1.492 -0.587,2.317 10.337,22.99 33.594,72.426 48.88,97.12 15.6,25.2 42.5,26.166 54,23.5 v 40 c 0,1.104 0.896,2 2,2 h 108.136 c 1.237,0 2.177,-1.112 1.972,-2.332 l -25.108,-149.168 h -38.503 c -10.861,0 -21.255,4.416 -28.794,12.234 l -42.203,43.766 -50.347,-79.963 c -0.4,-0.637 -1.125,-0.998 -1.871,-0.908 z"
     fill="url(#paint7_linear_243_1776)"
     fill-opacity="0.7"
     id="path24"
     style="fill:url(#paint7_linear_243_1776)" />
  <path
     opacity="0.2"
     fill-rule="evenodd"
     clip-rule="evenodd"
     d="m 228.59913,230.675 16.68,2.614 c 1.714,0.268 2.297,2.442 0.947,3.532 l -14.141,11.412 c -1.776,1.432 -0.153,4.243 1.976,3.422 l 16.953,-6.541 c 1.619,-0.624 3.21,0.968 2.586,2.586 l -6.541,16.954 c -0.821,2.128 1.99,3.751 3.423,1.976 l 11.411,-14.141 c 1.09,-1.35 3.264,-0.768 3.533,0.946 l 2.812,17.953 c 0.353,2.253 3.599,2.253 3.952,0 l 2.812,-17.953 c 0.269,-1.714 2.443,-2.297 3.533,-0.946 l 11.412,14.141 c 1.432,1.775 4.243,0.152 3.422,-1.976 l -6.541,-16.954 c -0.624,-1.618 0.968,-3.21 2.586,-2.586 l 16.954,6.541 c 2.128,0.821 3.751,-1.99 1.976,-3.422 l -14.142,-11.412 c -1.35,-1.09 -0.767,-3.264 0.947,-3.532 l 17.952,-2.813 c 2.254,-0.353 2.254,-3.599 0,-3.952 l -17.952,-2.812 c -1.714,-0.269 -2.297,-2.443 -0.947,-3.532 l 14.142,-11.412 c 1.775,-1.433 0.152,-4.244 -1.976,-3.423 l -16.954,6.541 c -1.618,0.624 -3.21,-0.967 -2.586,-2.586 l 6.541,-16.953 c 0.821,-2.129 -1.99,-3.752 -3.422,-1.976 l -11.412,14.141 c -1.09,1.35 -3.264,0.767 -3.533,-0.947 l -2.147,-13.704 c -1.979,0.792 -3.895,1.742 -5.727,2.841 l -1.702,10.863 c -0.269,1.714 -2.443,2.297 -3.533,0.947 l -3.674,-4.554 -5.873,6.091 1.254,3.251 c 0.624,1.619 -0.967,3.21 -2.586,2.586 l -3.132,-1.208 -5.878,6.095 4.222,3.407 c 1.35,1.089 0.767,3.263 -0.947,3.532 l -11.739,1.839 z"
     fill="#2563eb"
     id="path25" />
  <path
     opacity="0.2"
     fill-rule="evenodd"
     clip-rule="evenodd"
     d="m 344.77213,297.261 -4.238,5.251 c -1.089,1.35 -3.264,0.768 -3.532,-0.946 l -2.812,-17.953 c -0.354,-2.254 -3.599,-2.254 -3.952,0 l -2.813,17.953 c -0.268,1.714 -2.442,2.296 -3.532,0.946 l -11.412,-14.141 c -1.433,-1.775 -4.243,-0.152 -3.422,1.976 l 6.54,16.954 c 0.625,1.618 -0.967,3.21 -2.585,2.585 l -16.954,-6.54 c -2.128,-0.821 -3.751,1.989 -1.976,3.422 l 14.141,11.412 c 1.35,1.09 0.768,3.264 -0.946,3.532 l -17.953,2.813 c -2.254,0.353 -2.254,3.598 0,3.952 l 17.953,2.812 c 1.714,0.268 2.296,2.443 0.946,3.532 l -4.559,3.68 h 45.683 c 1.237,0 2.177,-1.112 1.972,-2.332 z"
     fill="#2563eb"
     id="path26" />
  <path
     opacity="0.2"
     fill-rule="evenodd"
     clip-rule="evenodd"
     d="m 180.58313,185.616 c -0.577,-0.034 -1.178,0.186 -1.637,0.755 l -11.411,14.141 c -1.09,1.35 -3.264,0.768 -3.533,-0.946 l -2.812,-17.953 c -0.353,-2.254 -3.599,-2.254 -3.952,0 l -2.812,17.953 c -0.269,1.714 -2.443,2.296 -3.533,0.946 l -7.598,-9.415 c 9.989,21.513 24.318,51.159 36.037,71.909 1.492,1.124 3.789,-0.402 3.037,-2.352 l -6.541,-16.953 c -0.624,-1.619 0.967,-3.211 2.586,-2.586 l 16.954,6.54 c 2.128,0.822 3.751,-1.989 1.975,-3.422 l -14.141,-11.412 c -1.35,-1.089 -0.767,-3.264 0.947,-3.532 l 17.952,-2.812 c 2.254,-0.354 2.254,-3.599 0,-3.952 l -17.952,-2.813 c -1.714,-0.268 -2.297,-2.442 -0.947,-3.532 l 11.024,-8.896 -2.785,-4.423 -13.027,5.025 c -1.619,0.625 -3.21,-0.967 -2.586,-2.585 l 6.516,-16.889 z"
     fill="#2563eb"
     id="path27" />
  <path
     d="m 305.71413,215 c 2.8,-10.4 0.167,-24 -1,-28 l -14.5,-10.5 -26,-59.5 c 1.5,-4.833 8.3,-15.4 23.5,-18.9995 19,-4.5 28,7.4995 34.5,21.9995 6.5,14.5 11,45 33.5,56.5 22.5,11.5 36,30.5 35,59 -0.644,18.351 6.659,36.638 12.575,47.507 1.539,2.828 -0.452,6.493 -3.671,6.493 h -81.513 c -1.472,0 -2.839,-0.826 -3.519,-2.132 -20.087,-38.635 -12.309,-59.6 -8.872,-72.368 z"
     fill="#f9fafb"
     id="path28" />
  <path
     d="m 305.71413,215 c 2.8,-10.4 0.167,-24 -1,-28 l -14.5,-10.5 -26,-59.5 c 1.5,-4.833 8.3,-15.4 23.5,-18.9995 19,-4.5 28,7.4995 34.5,21.9995 6.5,14.5 11,45 33.5,56.5 22.5,11.5 36,30.5 35,59 -0.644,18.351 6.659,36.638 12.575,47.507 1.539,2.828 -0.452,6.493 -3.671,6.493 h -81.513 c -1.472,0 -2.839,-0.826 -3.519,-2.132 -20.087,-38.635 -12.309,-59.6 -8.872,-72.368 z"
     fill="url(#paint8_linear_243_1776)"
     id="path29"
     style="fill:url(#paint8_linear_243_1776)" />
  <path
     d="m 287.21413,187 -12.5,-24 c 2.333,-6 9.2,-16.1 10,-8.5 1,9.5 6,17 12.5,22.5 3.673,3.108 6.177,7.064 7.5,10 z"
     fill="#fdba8c"
     id="path30" />
  <path
     d="m 287.21413,187 -12.5,-24 c 2.333,-6 9.2,-16.1 10,-8.5 1,9.5 6,17 12.5,22.5 3.673,3.108 6.177,7.064 7.5,10 z"
     fill="url(#paint9_linear_243_1776)"
     id="path31"
     style="fill:url(#paint9_linear_243_1776)" />
  <path
     d="m 281.71413,138.5 -12,-18 c -4.833,5.333 -14.4,18.6 -14,29 0.5,13 5.5,19.5 18,15 8.529,-3.07 15.967,-11.935 19.832,-18.717 1.14,-2 0.916,-4.446 -0.335,-6.379 -1.965,-3.037 -5.954,-4.022 -9.106,-2.248 z"
     fill="#fdba8c"
     id="path32" />
  <path
     d="m 281.71413,138.5 -12,-18 c -4.833,5.333 -14.4,18.6 -14,29 0.5,13 5.5,19.5 18,15 8.529,-3.07 15.967,-11.935 19.832,-18.717 1.14,-2 0.916,-4.446 -0.335,-6.379 -1.965,-3.037 -5.954,-4.022 -9.106,-2.248 z"
     fill="url(#paint10_linear_243_1776)"
     id="path33"
     style="fill:url(#paint10_linear_243_1776)" />
  <path
     fill-rule="evenodd"
     clip-rule="evenodd"
     d="m 261.73413,155.757 c 0.903,-0.214 1.837,-0.597 3.257,-1.22 0.369,-0.161 0.799,0.006 0.961,0.375 0.161,0.369 -0.007,0.799 -0.375,0.961 -1.408,0.617 -2.457,1.054 -3.506,1.303 -1.07,0.254 -2.11,0.307 -3.513,0.211 -0.402,-0.027 -0.705,-0.375 -0.678,-0.776 0.027,-0.402 0.375,-0.706 0.777,-0.678 1.309,0.089 2.193,0.034 3.077,-0.176 z"
     fill="#111928"
     id="path34" />
  <path
     fill-rule="evenodd"
     clip-rule="evenodd"
     d="m 257.28713,338.5 c 19.087,-25.879 25.023,-64.27 25.427,-83.5 -13.6,22.4 -34.667,37 -43.5,41.5 0,0 0,0 0,0 0,0 0,0 0,0 v 42 z"
     fill="url(#paint11_linear_243_1776)"
     id="path35"
     style="fill:url(#paint11_linear_243_1776)" />
  <path
     fill-rule="evenodd"
     clip-rule="evenodd"
     d="m 288.54513,145.169 c 0.416,-0.988 0.349,-1.966 0.094,-2.976 -0.098,-0.39 0.138,-0.787 0.529,-0.885 0.39,-0.099 0.786,0.138 0.885,0.528 0.295,1.166 0.424,2.503 -0.165,3.9 -0.586,1.389 -1.832,2.719 -4.042,3.99 -0.349,0.201 -0.795,0.08 -0.996,-0.269 -0.2,-0.349 -0.08,-0.794 0.269,-0.995 2.046,-1.177 3.006,-2.298 3.426,-3.293 z"
     fill="#111928"
     id="path36" />
  <path
     fill-rule="evenodd"
     clip-rule="evenodd"
     d="m 289.17913,136.496 c -1.657,-0.429 -3.474,-0.24 -5.075,0.661 l -2.39,1.344 c 0,0 0,0 0,0 l -13.437,-5.474 1.437,-6.026 z"
     fill="#111928"
     id="path37" />
  <path
     d="m 271.25413,118.087 c -1.59,-1.878 -9.894,-2.803 -15.012,-3.296 -1.791,-0.172 -3.488,0.871 -4.126,2.553 -4.105,10.814 -5.634,17.237 -6.577,24.095 -0.214,1.557 0.518,3.114 1.787,4.041 l 0.138,0.101 c 3.439,2.516 9.199,6.729 12.67,6.364 5.56,-0.583 13.592,-30.939 11.12,-33.858 z"
     fill="#c8d8fa"
     id="path38" />
  <path
     d="m 271.25413,118.087 c -1.59,-1.878 -9.894,-2.803 -15.012,-3.296 -1.791,-0.172 -3.488,0.871 -4.126,2.553 -4.105,10.814 -5.634,17.237 -6.577,24.095 -0.214,1.557 0.518,3.114 1.787,4.041 l 0.138,0.101 c 3.439,2.516 9.199,6.729 12.67,6.364 5.56,-0.583 13.592,-30.939 11.12,-33.858 z"
     fill="url(#paint12_linear_243_1776)"
     id="path39"
     style="fill:url(#paint12_linear_243_1776)" />
  <path
     d="m 264.21413,118 c -1.169,-1.461 -4.897,-2.477 -7.992,-3.048 -1.838,-0.34 -3.681,0.514 -4.599,2.143 -4.941,8.774 -6.343,18.623 -6.453,24.365 -0.031,1.599 0.833,3.07 2.278,3.753 2.203,1.04 5.225,2.069 7.766,1.787 4.5,-0.5 11,-26.5 9,-29 z"
     fill="#2563eb"
     id="path40" />
  <path
     d="m 264.21413,118 c -1.169,-1.461 -4.897,-2.477 -7.992,-3.048 -1.838,-0.34 -3.681,0.514 -4.599,2.143 -4.941,8.774 -6.343,18.623 -6.453,24.365 -0.031,1.599 0.833,3.07 2.278,3.753 2.203,1.04 5.225,2.069 7.766,1.787 4.5,-0.5 11,-26.5 9,-29 z"
     fill="url(#paint13_linear_243_1776)"
     id="path41"
     style="fill:url(#paint13_linear_243_1776)" />
  <defs
     id="defs68">
    <linearGradient
       id="paint0_linear_243_1776"
       x1="80.5"
       y1="-214"
       x2="659"
       y2="364.5"
       gradientUnits="userSpaceOnUse"
       gradientTransform="translate(-117.28587)">
      <stop
         stop-color="#2563eb"
         id="stop41" />
      <stop
         offset="1"
         stop-color="#2563eb"
         stop-opacity="0"
         id="stop42" />
    </linearGradient>
    <linearGradient
       id="paint1_linear_243_1776"
       x1="268.5"
       y1="441"
       x2="268.5"
       y2="2.5"
       gradientUnits="userSpaceOnUse"
       gradientTransform="translate(-117.28587)">
      <stop
         stop-color="#c8d8fa"
         id="stop43" />
      <stop
         offset="1"
         stop-color="#c8d8fa"
         stop-opacity="0"
         id="stop44" />
    </linearGradient>
    <linearGradient
       id="paint2_linear_243_1776"
       x1="357"
       y1="197.571"
       x2="357"
       y2="75.857101"
       gradientUnits="userSpaceOnUse"
       gradientTransform="translate(-117.28587)">
      <stop
         stop-color="#F9FAFB"
         id="stop45" />
      <stop
         offset="1"
         stop-color="#F9FAFB"
         stop-opacity="0"
         id="stop46" />
    </linearGradient>
    <linearGradient
       id="paint3_linear_243_1776"
       x1="211"
       y1="197.571"
       x2="211"
       y2="75.857101"
       gradientUnits="userSpaceOnUse"
       gradientTransform="translate(-117.28587)">
      <stop
         stop-color="#F9FAFB"
         id="stop47" />
      <stop
         offset="1"
         stop-color="#F9FAFB"
         stop-opacity="0"
         id="stop48" />
    </linearGradient>
    <linearGradient
       id="paint4_linear_243_1776"
       x1="65"
       y1="197.571"
       x2="65"
       y2="75.857101"
       gradientUnits="userSpaceOnUse"
       gradientTransform="translate(-117.28587)">
      <stop
         stop-color="#F9FAFB"
         id="stop49" />
      <stop
         offset="1"
         stop-color="#F9FAFB"
         stop-opacity="0"
         id="stop50" />
    </linearGradient>
    <linearGradient
       id="paint5_linear_243_1776"
       x1="416.5"
       y1="226.5"
       x2="416.5"
       y2="398.5"
       gradientUnits="userSpaceOnUse"
       gradientTransform="translate(-117.28587)">
      <stop
         stop-color="#111928"
         id="stop51" />
      <stop
         offset="1"
         stop-color="#111928"
         stop-opacity="0"
         id="stop52" />
    </linearGradient>
    <linearGradient
       id="paint6_linear_243_1776"
       x1="304.5"
       y1="226"
       x2="253.5"
       y2="140"
       gradientUnits="userSpaceOnUse"
       gradientTransform="translate(-117.28587)">
      <stop
         stop-color="#7F270F"
         id="stop53" />
      <stop
         offset="0.83338"
         stop-color="#7F270F"
         stop-opacity="0"
         id="stop54" />
    </linearGradient>
    <linearGradient
       id="paint7_linear_243_1776"
       x1="460"
       y1="376.50101"
       x2="308.5"
       y2="256.00101"
       gradientUnits="userSpaceOnUse"
       gradientTransform="translate(-117.28587)">
      <stop
         stop-color="#c8d8fa"
         id="stop55" />
      <stop
         offset="1"
         stop-color="#c8d8fa"
         stop-opacity="0"
         id="stop56" />
    </linearGradient>
    <linearGradient
       id="paint8_linear_243_1776"
       x1="453"
       y1="48.5005"
       x2="453"
       y2="172.5"
       gradientUnits="userSpaceOnUse"
       gradientTransform="translate(-117.28587)">
      <stop
         stop-color="#c8d8fa"
         id="stop57" />
      <stop
         offset="1"
         stop-color="#c8d8fa"
         stop-opacity="0"
         id="stop58" />
    </linearGradient>
    <linearGradient
       id="paint9_linear_243_1776"
       x1="408"
       y1="118"
       x2="408"
       y2="187"
       gradientUnits="userSpaceOnUse"
       gradientTransform="translate(-117.28587)">
      <stop
         stop-color="#7F270F"
         id="stop59" />
      <stop
         offset="0.83338"
         stop-color="#7F270F"
         stop-opacity="0"
         id="stop60" />
    </linearGradient>
    <linearGradient
       id="paint10_linear_243_1776"
       x1="394.061"
       y1="76.942001"
       x2="394.061"
       y2="165.922"
       gradientUnits="userSpaceOnUse"
       gradientTransform="translate(-117.28587)">
      <stop
         stop-color="#7F270F"
         id="stop61" />
      <stop
         offset="0.83338"
         stop-color="#7F270F"
         stop-opacity="0"
         id="stop62" />
    </linearGradient>
    <linearGradient
       id="paint11_linear_243_1776"
       x1="284"
       y1="263.5"
       x2="382"
       y2="302.5"
       gradientUnits="userSpaceOnUse"
       gradientTransform="translate(-117.28587)">
      <stop
         stop-color="#2563eb"
         id="stop63" />
      <stop
         offset="1"
         stop-color="#2563eb"
         stop-opacity="0"
         id="stop64" />
    </linearGradient>
    <linearGradient
       id="paint12_linear_243_1776"
       x1="362"
       y1="152.00101"
       x2="389"
       y2="136.00101"
       gradientUnits="userSpaceOnUse"
       gradientTransform="translate(-117.28587)">
      <stop
         stop-color="#d6e2fb"
         id="stop65" />
      <stop
         offset="1"
         stop-color="#d6e2fb"
         stop-opacity="0"
         id="stop66" />
    </linearGradient>
    <linearGradient
       id="paint13_linear_243_1776"
       x1="387.5"
       y1="88.500198"
       x2="372.16"
       y2="147.048"
       gradientUnits="userSpaceOnUse"
       gradientTransform="translate(-117.28587)">
      <stop
         stop-color="#111928"
         id="stop67" />
      <stop
         offset="1"
         stop-color="#111928"
         stop-opacity="0"
         id="stop68" />
    </linearGradient>
  </defs>
</svg>
